<?xml version="1.0" encoding="utf-8"?>
<!-- Generator: Adobe Illustrator 24.0.2, SVG Export Plug-In . SVG Version: 6.00 Build 0)  -->
<svg version="1.1" id="Слой_1" xmlns="http://www.w3.org/2000/svg" xmlns:xlink="http://www.w3.org/1999/xlink" x="0px" y="0px"
	 viewBox="0 0 640 480" style="enable-background:new 0 0 640 480;" xml:space="preserve">
<style type="text/css">
	.st0{fill:#FFFFFF;stroke:#A6A6A6;stroke-width:3;stroke-miterlimit:10;}
	.st1{fill:#A6A6A6;}
</style>
<g>
	<rect x="1.5" y="1.5" class="st0" width="637" height="477"/>
</g>
<g>
	<path class="st1" d="M77.7,202v-71.6h9.7l37.6,56.2v-56.2h9.1V202h-9.7l-37.6-56.3V202H77.7z"/>
	<path class="st1" d="M184.4,185.4l9.1,1.1c-1.4,5.3-4.1,9.4-8,12.4c-3.9,2.9-8.8,4.4-14.8,4.4c-7.6,0-13.6-2.3-18-7
		S146,185,146,176.6c0-8.7,2.3-15.5,6.7-20.3c4.5-4.8,10.3-7.2,17.5-7.2c6.9,0,12.6,2.4,17,7.1s6.6,11.4,6.6,19.9
		c0,0.5,0,1.3-0.1,2.3h-38.7c0.3,5.7,1.9,10.1,4.8,13.1c2.9,3,6.5,4.5,10.8,4.5c3.2,0,6-0.9,8.3-2.5
		C181.3,191.8,183.1,189.1,184.4,185.4z M155.6,171.1h29c-0.4-4.4-1.5-7.6-3.3-9.8c-2.8-3.4-6.4-5.1-10.9-5.1c-4,0-7.4,1.4-10.2,4.1
		C157.4,163,155.8,166.6,155.6,171.1z"/>
	<path class="st1" d="M214.1,202l-15.9-51.9h9.1l8.3,29.9l3.1,11.1c0.1-0.6,1-4.1,2.7-10.7l8.3-30.4h9l7.8,30.1l2.6,9.9l3-10l8.9-30
		h8.5L253.2,202H244l-8.3-31.1l-2-8.8L223.3,202L214.1,202L214.1,202z"/>
	<path class="st1" d="M304.6,140.6v-10.1h8.8v10.1H304.6z M304.6,202v-51.9h8.8V202H304.6z"/>
	<path class="st1" d="M326.7,202v-51.9h7.9v7.3c1.6-2.5,3.8-4.6,6.5-6.1c2.7-1.6,5.8-2.3,9.2-2.3c3.8,0,7,0.8,9.5,2.4
		c2.5,1.6,4.2,3.8,5.2,6.7c4.1-6.1,9.4-9.1,16-9.1c5.1,0,9.1,1.4,11.9,4.3s4.1,7.2,4.1,13.2V202h-8.7v-32.7c0-3.5-0.3-6.1-0.9-7.6
		c-0.6-1.6-1.6-2.8-3.1-3.7c-1.5-0.9-3.3-1.4-5.3-1.4c-3.6,0-6.7,1.2-9.1,3.6c-2.4,2.4-3.6,6.3-3.6,11.6V202h-8.8v-33.7
		c0-3.9-0.7-6.8-2.1-8.8s-3.8-2.9-7-2.9c-2.5,0-4.8,0.6-6.9,1.9c-2.1,1.3-3.6,3.2-4.6,5.7c-1,2.5-1.4,6.1-1.4,10.8V202L326.7,202
		L326.7,202z"/>
	<path class="st1" d="M443.9,195.6c-3.3,2.8-6.4,4.7-9.4,5.9c-3,1.1-6.2,1.7-9.7,1.7c-5.7,0-10.1-1.4-13.1-4.2
		c-3.1-2.8-4.6-6.3-4.6-10.7c0-2.5,0.6-4.9,1.7-7c1.2-2.1,2.7-3.8,4.5-5.1s4-2.2,6.3-2.9c1.7-0.5,4.3-0.9,7.8-1.3
		c7.1-0.9,12.3-1.9,15.7-3c0-1.2,0-2,0-2.3c0-3.6-0.8-6.1-2.5-7.6c-2.3-2-5.6-3-10-3c-4.1,0-7.2,0.7-9.2,2.2s-3.4,4-4.4,7.7
		l-8.6-1.2c0.8-3.7,2.1-6.6,3.9-8.9c1.8-2.3,4.4-4,7.8-5.2s7.3-1.8,11.8-1.8c4.4,0,8,0.5,10.8,1.6c2.8,1,4.8,2.4,6.1,3.9
		c1.3,1.6,2.2,3.6,2.7,6c0.3,1.5,0.4,4.2,0.4,8.1v11.7c0,8.2,0.2,13.3,0.6,15.5c0.4,2.2,1.1,4.2,2.2,6.2h-9.2
		C444.7,200.2,444.1,198.1,443.9,195.6z M443.1,176c-3.2,1.3-8,2.4-14.4,3.3c-3.6,0.5-6.2,1.1-7.7,1.8s-2.6,1.6-3.5,2.9
		c-0.8,1.3-1.2,2.6-1.2,4.2c0,2.3,0.9,4.3,2.7,5.9s4.4,2.3,7.8,2.3c3.4,0,6.4-0.7,9-2.2c2.6-1.5,4.6-3.5,5.8-6.1
		c0.9-2,1.4-4.9,1.4-8.8L443.1,176L443.1,176z"/>
	<path class="st1" d="M464,206.3l8.5,1.3c0.4,2.6,1.4,4.6,3,5.8c2.2,1.6,5.2,2.4,8.9,2.4c4.1,0,7.2-0.8,9.4-2.4
		c2.2-1.6,3.7-3.9,4.5-6.8c0.5-1.8,0.7-5.6,0.6-11.3c-3.8,4.5-8.6,6.8-14.4,6.8c-7.1,0-12.6-2.6-16.5-7.7
		c-3.9-5.1-5.9-11.3-5.9-18.5c0-4.9,0.9-9.5,2.7-13.7c1.8-4.2,4.4-7.4,7.8-9.7c3.4-2.3,7.4-3.4,12-3.4c6.1,0,11.2,2.5,15.1,7.4v-6.3
		h8.1V195c0,8.1-0.8,13.8-2.5,17.2s-4.3,6-7.8,8s-8,2.9-13.2,2.9c-6.2,0-11.2-1.4-15-4.2S463.9,211.9,464,206.3z M471.3,175.2
		c0,6.8,1.4,11.8,4,14.9c2.7,3.1,6.1,4.7,10.2,4.7c4,0,7.4-1.6,10.2-4.7c2.7-3.1,4.1-8,4.1-14.6c0-6.4-1.4-11.1-4.2-14.4
		s-6.2-4.8-10.2-4.8c-3.9,0-7.2,1.6-10,4.8S471.3,168.9,471.3,175.2z"/>
	<path class="st1" d="M556.8,185.4l9.1,1.1c-1.4,5.3-4.1,9.4-8,12.4c-3.9,2.9-8.8,4.4-14.8,4.4c-7.6,0-13.6-2.3-18-7
		s-6.7-11.2-6.7-19.6c0-8.7,2.3-15.5,6.7-20.3c4.5-4.8,10.3-7.2,17.5-7.2c6.9,0,12.6,2.4,17,7.1s6.6,11.4,6.6,19.9
		c0,0.5,0,1.3,0,2.3h-38.7c0.3,5.7,1.9,10.1,4.8,13.1c2.9,3,6.5,4.5,10.8,4.5c3.2,0,6-0.9,8.3-2.5
		C553.6,191.8,555.4,189.1,556.8,185.4z M527.9,171.1h29c-0.4-4.4-1.5-7.6-3.3-9.8c-2.8-3.4-6.4-5.1-10.9-5.1c-4,0-7.4,1.4-10.2,4.1
		S528.2,166.6,527.9,171.1z"/>
	<path class="st1" d="M227.1,288.5l3.9,0.5c-0.4,2.7-1.5,4.8-3.3,6.3c-1.8,1.5-3.9,2.3-6.4,2.3c-3.2,0-5.8-1-7.7-3.1s-2.9-5.1-2.9-9
		c0-2.5,0.4-4.7,1.3-6.6s2.1-3.3,3.8-4.3c1.7-0.9,3.6-1.4,5.6-1.4c2.5,0,4.6,0.6,6.2,1.9s2.6,3.1,3.1,5.5l-3.9,0.6
		c-0.4-1.6-1-2.8-1.9-3.5s-2.1-1.2-3.4-1.2c-2,0-3.6,0.7-4.9,2.1c-1.3,1.4-1.9,3.7-1.9,6.8c0,3.1,0.6,5.4,1.8,6.8s2.8,2.1,4.7,2.1
		c1.6,0,2.9-0.5,3.9-1.4S226.8,290.5,227.1,288.5z"/>
	<path class="st1" d="M234.3,297v-32.2h4V297H234.3z"/>
	<path class="st1" d="M244.4,269.4v-4.5h4v4.5H244.4z M244.4,297v-23.3h4V297H244.4z"/>
	<path class="st1" d="M269.6,288.5l3.9,0.5c-0.4,2.7-1.5,4.8-3.3,6.3c-1.8,1.5-3.9,2.3-6.5,2.3c-3.2,0-5.8-1-7.7-3.1s-2.9-5.1-2.9-9
		c0-2.5,0.4-4.7,1.3-6.6s2.1-3.3,3.8-4.3c1.7-0.9,3.6-1.4,5.6-1.4c2.5,0,4.6,0.6,6.2,1.9c1.6,1.3,2.6,3.1,3.1,5.5l-3.9,0.6
		c-0.4-1.6-1-2.8-1.9-3.5s-2-1.2-3.4-1.2c-2,0-3.6,0.7-4.9,2.1c-1.3,1.4-1.9,3.7-1.9,6.8c0,3.1,0.6,5.4,1.8,6.8s2.8,2.1,4.7,2.1
		c1.5,0,2.9-0.5,3.9-1.4S269.3,290.5,269.6,288.5z"/>
	<path class="st1" d="M276.9,297v-32.2h4v18.4l9.4-9.5h5.1l-8.9,8.7l9.8,14.7h-4.9l-7.7-11.9l-2.8,2.7v9.3L276.9,297L276.9,297z"/>
	<path class="st1" d="M320.5,293.5l0.6,3.5c-1.1,0.2-2.1,0.4-3,0.4c-1.4,0-2.5-0.2-3.3-0.7c-0.8-0.5-1.4-1-1.7-1.8
		c-0.3-0.7-0.5-2.3-0.5-4.7v-13.4h-2.9v-3.1h2.9v-5.8l3.9-2.4v8.1h4v3.1h-4v13.6c0,1.1,0.1,1.9,0.2,2.2s0.4,0.6,0.7,0.8
		s0.8,0.3,1.4,0.3C319.2,293.7,319.8,293.6,320.5,293.5z"/>
	<path class="st1" d="M322.9,285.4c0-4.3,1.2-7.5,3.6-9.6c2-1.7,4.5-2.6,7.3-2.6c3.2,0,5.8,1,7.9,3.1s3,5,3,8.7c0,3-0.5,5.4-1.4,7.1
		s-2.2,3.1-3.9,4s-3.6,1.4-5.6,1.4c-3.3,0-5.9-1-7.9-3.1C323.9,292.3,322.9,289.3,322.9,285.4z M327,285.4c0,3,0.6,5.2,2,6.7
		c1.3,1.5,2.9,2.2,4.9,2.2c2,0,3.6-0.8,4.9-2.2s2-3.8,2-6.8c0-2.9-0.7-5.1-2-6.6s-2.9-2.2-4.9-2.2c-2,0-3.6,0.7-4.9,2.2
		S327,282.4,327,285.4z"/>
	<path class="st1" d="M377.9,289.5l4.1,0.5c-0.6,2.4-1.8,4.2-3.6,5.6s-4,2-6.7,2c-3.4,0-6.1-1-8.1-3.1s-3-5-3-8.8c0-3.9,1-7,3-9.1
		s4.6-3.3,7.9-3.3c3.1,0,5.7,1.1,7.6,3.2c2,2.1,3,5.1,3,9c0,0.2,0,0.6,0,1h-17.4c0.1,2.6,0.9,4.5,2.2,5.9c1.3,1.4,2.9,2,4.9,2
		c1.5,0,2.7-0.4,3.7-1.1S377.3,291.2,377.9,289.5z M364.9,283.1h13c-0.2-2-0.7-3.4-1.5-4.4c-1.3-1.5-2.9-2.3-4.9-2.3
		c-1.8,0-3.3,0.6-4.6,1.8C365.7,279.5,365,281.1,364.9,283.1z"/>
	<path class="st1" d="M402.1,297v-2.9c-1.5,2.3-3.6,3.5-6.5,3.5c-1.9,0-3.6-0.5-5.1-1.5s-2.8-2.5-3.6-4.3c-0.9-1.8-1.3-4-1.3-6.3
		c0-2.3,0.4-4.4,1.2-6.3c0.8-1.9,1.9-3.4,3.5-4.4c1.5-1,3.3-1.5,5.2-1.5c1.4,0,2.7,0.3,3.8,0.9c1.1,0.6,2,1.4,2.7,2.3v-11.6h3.9V297
		L402.1,297L402.1,297z M389.6,285.4c0,3,0.6,5.2,1.9,6.7s2.8,2.2,4.5,2.2c1.7,0,3.2-0.7,4.4-2.1s1.8-3.6,1.8-6.5
		c0-3.2-0.6-5.5-1.9-7s-2.8-2.2-4.5-2.2c-1.8,0-3.2,0.7-4.4,2.1C390.2,280,389.6,282.3,389.6,285.4z"/>
	<path class="st1" d="M412,269.4v-4.5h4v4.5H412z M412,297v-23.3h4V297H412z"/>
	<path class="st1" d="M430.6,293.5l0.6,3.5c-1.1,0.2-2.1,0.4-3,0.4c-1.4,0-2.5-0.2-3.3-0.7c-0.8-0.5-1.4-1-1.7-1.8
		c-0.3-0.7-0.5-2.3-0.5-4.7v-13.4h-2.9v-3.1h2.9v-5.8l3.9-2.4v8.1h4v3.1h-4v13.6c0,1.1,0.1,1.9,0.2,2.2c0.1,0.3,0.4,0.6,0.7,0.8
		s0.8,0.3,1.4,0.3C429.3,293.7,429.9,293.6,430.6,293.5z"/>
</g>
</svg>
